PathFileType	4	(X/Y/Z)	C:/Users/beibeiliu/ov580/test_trc/capture2\sequence.10_training_dense_left.trc
DataRate	CameraRate	NumFrames	NumMarkers	Units	OrigDataRate	OrigDataStartFrame	OrigNumFrames
120	120	13	19	mm	120	262	349
Frame#	Time	ThumbCMC			ThumbMCP			ThumbIP			ThumbTip			IndexMCP			IndexPIP			IndexTip			MiddleMCP			MiddlePIP			MiddleTip			RingMCP			RingPIP			RingTip			PinkyMCP			PinkyPIP			PinkyTip			BackHand1			BackHand2			BackHand3	
		X0	Y0	Z0	X1	Y1	Z1	X2	Y2	Z2	X3	Y3	Z3	X4	Y4	Z4	X5	Y5	Z5	X6	Y6	Z6	X7	Y7	Z7	X8	Y8	Z8	X9	Y9	Z9	X10	Y10	Z10	X11	Y11	Z11	X12	Y12	Z12	X13	Y13	Z13	X14	Y14	Z14	X15	Y15	Z15	X16	Y16	Z16	X17	Y17	Z17	X18	Y18	Z18	
261	2.175	-163.072	66.3118	-49.9276	-131.136	70.2138	-73.537	-117.539	55.8857	-98.2192	-114.163	32.6738	-107.917	-178.912	56.3368	-122.658	-174.008	58.5389	-147.388	-170.791	51.997	-170.172	-175.191	27.0668	-124.742	-170.921	21.7549	-149.259	-170.149	17.7715	-173.143	-156.418	12.7565	-117.357	-143.947	10.5056	-143.127	-132.505	15.8901	-165.285	-134.566	7.75549	-101.924	-111.253	25.3944	-96.5555	-121.933	42.5358	-70.2714	-174.599	8.87449	-72.9072	-181.443	8.11159	-43.0538	-192.781	41.0076	-59.0533	
262	2.18333	-164.021	65.9467	-50.2995	-134.997	66.7756	-74.1798	-120.008	59.4032	-94.2225	-115.759	29.5388	-109.194	-178.076	51.3107	-123.16	-174.649	58.2322	-148.112	-172.112	51.4507	-172.186	-174.526	26.789	-122.099	-172.949	23.4182	-148.625	-171.54	15.6625	-175.434	-156.219	12.1239	-119.159	-143.951	11.342	-143.994	-134.046	15.9203	-164.756	-132.137	6.39879	-103.666	-110.23	27.1275	-93.5528	-117.607	41.7	-70.005	-178.288	10.7238	-68.8367	-182.615	7.99294	-37.7167	-190.413	36.5275	-57.2279	
263	2.19167	-163.592	68.7767	-49.7084	-133.144	69.6246	-76.4438	-119.113	57.534	-98.6502	-117.867	31.0491	-107.486	-179.464	55.0279	-122.456	-175.05	57.3632	-148.056	-173.872	56.2548	-169.112	-175.694	26.7555	-122.351	-173.739	21.7266	-150.385	-173.829	16.2471	-178.755	-159.267	15.1849	-118.957	-146.425	10.6448	-140.849	-135.362	16.3082	-165.388	-135.472	8.00111	-101.645	-113.295	28.2669	-95.62	-120.167	41.1542	-67.664	-175.575	7.90823	-70.0774	-181.403	8.87447	-37.9407	-191.799	40.1486	-61.0253	
264	2.2	-164	64.6852	-49.7343	-134.392	69.6232	-71.2574	-119.008	57.3971	-100.076	-116.227	34.1794	-108.76	-178.929	51.8624	-122.493	-175.986	59.5722	-143.257	-173.925	56.3455	-167.579	-176.07	24.1557	-126.153	-174.703	25.1922	-150.114	-174.734	20.9408	-177.018	-159.151	12.7385	-117.717	-148.515	14.3286	-143.545	-136.446	17.1049	-165.733	-133.53	7.88478	-104.754	-112.585	25.0118	-99.8377	-118.351	39.9349	-74.2163	-176.934	11.5314	-70.3456	-181.174	9.93832	-41.2617	-193.211	37.7704	-57.654	
265	2.20833	-164.35	66.6694	-54.7746	-135.487	67.9189	-72.0375	-119.617	62.2208	-97.1021	-116.568	36.2	-109.196	-179.899	51.1783	-119.11	-176.106	57.4098	-148.448	-173.319	55.0187	-168.269	-177.715	26.8583	-123.011	-174.288	21.9028	-147.511	-174.427	19.1782	-177.046	-160.797	14.077	-121.099	-148.525	9.7367	-144.057	-138.484	14.0612	-165.499	-138.009	5.52153	-105.298	-113.776	25.6211	-103.767	-116.367	40.4018	-77.6204	-178.419	7.97194	-68.9624	-182.963	8.14911	-42.8294	-194.725	38.9617	-59.4575	
266	2.21667	-164.626	66.6741	-54.7302	-136.026	67.9505	-74.1412	-120.091	62.9515	-96.7209	-115.318	38.1374	-109.998	-180.249	50.6372	-120.22	-177.809	57.3446	-144.346	-174.767	56.6351	-167.741	-176.855	24.1693	-123.737	-175.218	23.3935	-149.817	-175.405	19.7619	-180.049	-162.455	13.6169	-119.42	-151.713	10.4952	-143.495	-140.391	11.6053	-172.003	-142.351	4.19971	-109.129	-116.529	18.4988	-117.257	-110.115	40.4227	-96.8146	-178.236	9.01649	-72.5583	-179.669	6.71873	-40.7795	-193.342	37.9434	-58.5468	
267	2.225	-165.015	66.8643	-53.0577	-134.808	71.6478	-74.891	-120.206	62.5439	-93.9878	-113.394	38.6565	-111.071	-182.181	52.8179	-119.993	-177.614	58.5713	-148.064	-174.999	54.9359	-172.451	-178.438	26.9522	-127.19	-176.346	25.6726	-148.856	-177.923	24.0781	-178.316	-162.6	10.807	-117.637	-155.725	11.1931	-146.529	-147.547	11.1068	-168.782	-148.868	1.55846	-106.644	-128.698	7.26568	-127.923	-107.892	29.3534	-126.322	-175.752	5.62103	-70.763	-179.236	6.51396	-39.2308	-191.828	36.3802	-57.8322	
268	2.23333	-166.702	67.2704	-50.606	-137.326	69.1762	-73.0854	-120.116	62.356	-99.1399	-115.72	38.9678	-107.726	-183.273	56.3748	-123.251	-179.998	58.9257	-143.228	-176.875	57.4596	-172.165	-178.615	26.5094	-125.537	-177.324	24.7609	-152.865	-178.429	24.7775	-174.852	-163.426	10.7768	-118.943	-159.23	12.034	-144.186	-152.756	11.7958	-167.046	-148.782	-4.23532	-105.942	-137.37	-0.225866	-129.585	-115.759	13.9717	-146.723	-176.521	6.30699	-70.0751	-181.099	7.62321	-38.6129	-192.602	33.88	-61.0026	
269	2.24167	-167.488	69.2921	-47.5725	-136.538	72.4616	-74.2149	-122.732	61.4037	-95.3655	-117.957	32.0304	-107.533	-182.189	55.044	-118.609	-178.853	58.0543	-143.975	-176.87	60.8138	-168.355	-176.817	26.2689	-121.347	-176.192	26.0439	-146.69	-177.336	24.366	-173.988	-165.885	14.9731	-120.033	-160.782	11.7742	-146.041	-155.288	7.83942	-171.64	-147.975	-1.8508	-102.862	-137.503	-3.39981	-126.539	-126.002	-4.10155	-147.887	-174.798	8.70033	-68.209	-183.779	9.33153	-40.3491	-193.411	38.5362	-56.0456	
270	2.25	-167.52	64.41	-47.932	-137.545	72.2963	-74.0825	-122.886	60.6911	-96.2629	-119.802	33.7394	-103.739	-181.981	55.24	-119.818	-176.557	57.7836	-143.834	-175.501	60.523	-166.773	-177.072	30.573	-125.418	-174.6	27.979	-146.876	-175.804	26.7344	-177.689	-163.37	15.6429	-118.055	-157.996	9.61563	-140.299	-156.525	10.6725	-170.392	-145.091	0.131071	-101.691	-137.637	-0.539996	-121.48	-130.529	-11.3717	-147.469	-173.906	9.02784	-69.058	-179.809	8.82114	-39.9159	-193.64	35.654	-57.6107	
271	2.25833	-168.908	66.4943	-48.7163	-138.698	72.8307	-74.4285	-124.245	60.5243	-95.6193	-123.901	31.5522	-97.7123	-182.279	57.2551	-121.547	-177.617	62.8618	-144.148	-174.917	61.1759	-170.14	-174.96	29.213	-125.866	-174.95	31.9536	-146.332	-174.761	29.3585	-172.895	-161.215	16.2042	-115.329	-158.234	13.9962	-142.119	-154.301	8.85139	-166.394	-143.39	2.75554	-103.181	-133.741	-3.80365	-124.47	-130.393	-12.0668	-145.844	-172.159	7.80513	-71.4725	-181.338	8.75647	-40.3282	-191.05	36.1957	-59.1923	
272	2.26667	-168.759	67.9557	-45.7351	-141.168	71.6083	-69.6185	-125.471	57.2394	-97.098	-123.29	34.1526	-98.9676	-179.415	53.9519	-118.792	-176.428	62.764	-140.626	-173.244	61.204	-165.606	-174.135	29.921	-124.905	-171.127	29.4706	-150.836	-173.031	31.3057	-173.433	-160.669	16.3934	-118.552	-157.861	14.535	-138.819	-155.012	12.0514	-166.329	-142.733	1.30196	-100.385	-133.655	-2.97552	-121.261	-130.674	-12.9729	-138.833	-173.096	7.71279	-66.8771	-182.719	9.6567	-38.7108	-191.764	37.4203	-56.6969	
273	2.275	-168.66	68.0341	-47.787	-140.113	72.1869	-68.3469	-127.077	57.1308	-92.9901	-123.589	33.3987	-97.984	-180.937	59.4395	-115.396	-176.502	66.2231	-140.682	-173.891	67.6043	-166.371	-173.511	32.7002	-121.603	-170.628	29.8853	-145.793	-172.388	32.44	-173.561	-159.278	14.1575	-118.093	-156.857	15.2749	-138.234	-153.84	11.2344	-167.6	-143.056	3.26817	-100.013	-132.835	-3.84936	-121.382	-134.807	-10.5074	-138.774	-173.841	9.3001	-66.791	-181.617	9.74161	-38.6288	-190.078	35.4895	-57.2789	
